<svg width="121" height="35.8" viewBox="0 0 121 35.8" fill="none" xmlns="http://www.w3.org/2000/svg">
<g>
<path d="M7.4334 32.2358C9.14548 31.1088 10.7492 29.9169 12.3529 28.6816C16.1888 25.6909 19.873 22.5485 23.4272 19.2327C24.9442 17.8023 26.4613 16.372 28.065 15.0283C28.6068 14.5732 29.1919 14.1615 29.8421 13.8797C30.0805 13.7714 30.3405 13.6847 30.6006 13.6413C31.2074 13.5547 31.6842 13.7497 32.0309 14.2698C32.291 12.9912 31.2941 11.6909 29.9938 11.5825C29.1269 11.5175 28.3034 11.7342 27.5232 12.081C26.0278 12.7528 24.7275 13.7497 23.4706 14.7899C20.8699 16.9788 18.2476 19.1893 15.387 21.0531C11.7028 23.437 8.04021 25.8426 4.2043 27.9881C3.96591 28.1181 3.66251 28.3782 3.44579 28.3348C3.2074 28.2915 3.07737 27.9014 2.90399 27.663C2.62226 27.2513 2.62226 27.2513 3.07737 27.0345C8.36529 24.3906 13.4365 21.3782 18.2043 17.9107C20.3715 16.3503 22.4737 14.7033 24.6625 13.1862C25.2476 12.7745 25.8545 12.341 26.4613 11.9509C27.2631 11.4525 28.1083 11.1274 29.0619 11.0624C29.517 11.0407 29.9721 11.1057 30.4272 11.1924C30.3839 11.0624 30.2972 11.0407 30.2105 10.9974C28.7801 10.0438 27.2198 9.84877 25.5727 10.2172C25.0959 10.3256 24.6408 10.4556 24.1857 10.6506C24.0557 10.694 23.969 10.7156 23.839 10.5856C23.2972 10.0655 22.6254 9.8271 21.8885 9.78376C20.6532 9.71874 19.5046 10.0438 18.3777 10.4989C16.4055 11.3008 14.4767 12.1893 12.5046 12.9695C9.8173 14.0314 7.13 15.05 4.356 15.7869C3.03402 16.1119 1.71204 16.4153 0.325045 16.3937C-0.0217047 16.3937 -0.0217047 16.3937 0.021639 16.0469C0.86684 9.65373 4.16096 4.99428 9.90399 2.11193C12.678 0.724932 15.647 0.22648 18.7244 0.443198C26.4396 1.00667 32.8761 6.61967 34.5232 14.1831C36.582 23.6321 30.6006 32.9076 21.1083 34.9664C16.2538 36.0067 11.7244 35.0965 7.58511 32.3441C7.54176 32.3225 7.49842 32.3008 7.4334 32.2358Z" fill="white"/>
<path d="M23.4273 10.9546C21.7369 11.7131 20.3499 12.7967 18.9195 13.7936C17.7926 14.5738 16.6006 15.224 15.4087 15.8958C12.1579 17.7596 8.84213 19.4716 5.33129 20.8153C3.81426 21.4004 2.27556 21.8989 0.693519 22.2673C0.520144 22.3107 0.455128 22.2673 0.433457 22.0939C0.390113 21.8555 0.346769 21.5955 0.260082 21.3571C0.195067 21.162 0.260082 21.097 0.433457 21.0754C1.40869 20.8803 2.34058 20.6203 3.29414 20.3168C6.6316 19.2549 9.81736 17.8246 12.9381 16.2642C15.452 14.9856 17.8359 13.4685 20.2849 12.1032C20.8483 11.7781 21.3901 11.4097 22.0186 11.1713C22.452 10.998 22.8855 10.8896 23.4273 10.9546Z" fill="white"/>
</g>
<path d="M43.224 21.5C42.6667 21.5 42.1533 21.3607 41.684 21.082C41.2293 20.8033 40.8627 20.4367 40.584 19.982C40.3053 19.5127 40.166 18.9993 40.166 18.442V17.232H43.07V18.31C43.07 18.3833 43.092 18.4493 43.136 18.508C43.1947 18.552 43.2607 18.574 43.334 18.574H52.816C52.8893 18.574 52.948 18.552 52.992 18.508C53.0507 18.4493 53.08 18.3833 53.08 18.31V15.296C53.08 15.2227 53.0507 15.164 52.992 15.12C52.948 15.076 52.8893 15.054 52.816 15.054H43.224C42.6667 15.054 42.1533 14.9147 41.684 14.636C41.2293 14.3573 40.8627 13.9907 40.584 13.536C40.3053 13.0667 40.166 12.546 40.166 11.974V8.718C40.166 8.16067 40.3053 7.65467 40.584 7.2C40.8627 6.73067 41.2293 6.35667 41.684 6.078C42.1533 5.79933 42.6667 5.66 43.224 5.66H52.948C53.5053 5.66 54.0113 5.79933 54.466 6.078C54.9353 6.35667 55.3093 6.73067 55.588 7.2C55.8667 7.65467 56.006 8.16067 56.006 8.718V9.928H53.08V8.85C53.08 8.77667 53.0507 8.718 52.992 8.674C52.948 8.61533 52.8893 8.586 52.816 8.586H43.334C43.2607 8.586 43.1947 8.61533 43.136 8.674C43.092 8.718 43.07 8.77667 43.07 8.85V11.864C43.07 11.9373 43.092 11.996 43.136 12.04C43.1947 12.084 43.2607 12.106 43.334 12.106H52.948C53.5053 12.106 54.0113 12.2453 54.466 12.524C54.9353 12.8027 55.3093 13.1767 55.588 13.646C55.8667 14.1007 56.006 14.614 56.006 15.186V18.442C56.006 18.9993 55.8667 19.5127 55.588 19.982C55.3093 20.4367 54.9353 20.8033 54.466 21.082C54.0113 21.3607 53.5053 21.5 52.948 21.5H43.224ZM60.6738 21.5C60.1164 21.5 59.6104 21.3607 59.1558 21.082C58.7011 20.8033 58.3344 20.4367 58.0558 19.982C57.7771 19.5273 57.6378 19.0213 57.6378 18.464V11.776C57.6378 11.2187 57.7771 10.7127 58.0558 10.258C58.3344 9.80333 58.7011 9.43667 59.1558 9.158C59.6104 8.87933 60.1164 8.74 60.6738 8.74H67.5598C68.1171 8.74 68.6231 8.87933 69.0778 9.158C69.5471 9.43667 69.9138 9.80333 70.1778 10.258C70.4564 10.7127 70.5958 11.2187 70.5958 11.776V18.464C70.5958 19.0213 70.4564 19.5273 70.1778 19.982C69.9138 20.4367 69.5544 20.8033 69.0998 21.082C68.6451 21.3607 68.1318 21.5 67.5598 21.5H60.6738ZM60.7838 18.618H67.4498C67.5231 18.618 67.5818 18.596 67.6258 18.552C67.6844 18.4933 67.7138 18.4273 67.7138 18.354V11.886C67.7138 11.8127 67.6844 11.754 67.6258 11.71C67.5818 11.6513 67.5231 11.622 67.4498 11.622H60.7838C60.7104 11.622 60.6444 11.6513 60.5858 11.71C60.5418 11.754 60.5198 11.8127 60.5198 11.886V18.354C60.5198 18.4273 60.5418 18.4933 60.5858 18.552C60.6444 18.596 60.7104 18.618 60.7838 18.618ZM72.2762 21.5V4.56H75.1582V13.668H77.4242L81.9782 8.74H85.0582V9.532L79.9762 15.12L85.0362 20.708V21.5H81.9782L77.4242 16.572H75.1582V21.5H72.2762ZM88.8089 21.5C88.2515 21.5 87.7455 21.3607 87.2909 21.082C86.8362 20.8033 86.4695 20.4367 86.1909 19.982C85.9122 19.5273 85.7729 19.0213 85.7729 18.464V11.776C85.7729 11.2187 85.9122 10.7127 86.1909 10.258C86.4695 9.80333 86.8362 9.43667 87.2909 9.158C87.7455 8.87933 88.2515 8.74 88.8089 8.74H95.6949C96.2522 8.74 96.7582 8.87933 97.2129 9.158C97.6822 9.43667 98.0489 9.80333 98.3129 10.258C98.5915 10.7127 98.7309 11.2187 98.7309 11.776V18.464C98.7309 19.0213 98.5915 19.5273 98.3129 19.982C98.0489 20.4367 97.6895 20.8033 97.2349 21.082C96.7802 21.3607 96.2669 21.5 95.6949 21.5H88.8089ZM88.9189 18.618H95.5849C95.6582 18.618 95.7169 18.596 95.7609 18.552C95.8195 18.4933 95.8489 18.4273 95.8489 18.354V11.886C95.8489 11.8127 95.8195 11.754 95.7609 11.71C95.7169 11.6513 95.6582 11.622 95.5849 11.622H88.9189C88.8455 11.622 88.7795 11.6513 88.7209 11.71C88.6769 11.754 88.6549 11.8127 88.6549 11.886V18.354C88.6549 18.4273 88.6769 18.4933 88.7209 18.552C88.7795 18.596 88.8455 18.618 88.9189 18.618ZM102.866 21.5C102.309 21.5 101.803 21.3607 101.348 21.082C100.894 20.8033 100.527 20.4367 100.248 19.982C99.9695 19.5273 99.8302 19.0213 99.8302 18.464V4.538H102.734V18.354C102.734 18.4273 102.756 18.4933 102.8 18.552C102.859 18.596 102.925 18.618 102.998 18.618H105.44V21.5H102.866Z" fill="white"/>
<path d="M39.416 31.5V26.86H40.464V31.5H39.416ZM39.416 26.396V25.34H40.464V26.396H39.416ZM41.1529 31.5V26.86H44.7609C44.9636 26.86 45.1476 26.9107 45.3129 27.012C45.4836 27.1133 45.6169 27.2467 45.7129 27.412C45.8143 27.5773 45.8649 27.7613 45.8649 27.964V31.5H44.8169V28.004C44.8169 27.9773 44.8063 27.956 44.7849 27.94C44.7689 27.9187 44.7476 27.908 44.7209 27.908H42.2969C42.2703 27.908 42.2463 27.9187 42.2249 27.94C42.2089 27.956 42.2009 27.9773 42.2009 28.004V31.5H41.1529ZM47.5793 31.5C47.3766 31.5 47.1926 31.4493 47.0273 31.348C46.8619 31.2467 46.7286 31.1133 46.6273 30.948C46.5259 30.7827 46.4753 30.5987 46.4753 30.396V25.436H47.5233V26.86H49.3313V27.908H47.5233V30.356C47.5233 30.3827 47.5313 30.4067 47.5473 30.428C47.5686 30.444 47.5926 30.452 47.6193 30.452H49.3313V31.5H47.5793ZM50.8311 31.5C50.6284 31.5 50.4444 31.4493 50.2791 31.348C50.1137 31.2467 49.9804 31.1133 49.8791 30.948C49.7777 30.7827 49.7271 30.5987 49.7271 30.396V27.964C49.7271 27.7613 49.7777 27.5773 49.8791 27.412C49.9804 27.2467 50.1137 27.1133 50.2791 27.012C50.4444 26.9107 50.6284 26.86 50.8311 26.86H53.3351C53.5377 26.86 53.7217 26.9107 53.8871 27.012C54.0577 27.1133 54.1911 27.2467 54.2871 27.412C54.3884 27.5773 54.4391 27.7613 54.4391 27.964V29.708H50.7751V30.356C50.7751 30.3827 50.7831 30.4067 50.7991 30.428C50.8204 30.444 50.8444 30.452 50.8711 30.452H54.4391V31.5H50.8311ZM50.7751 28.764H53.3911V28.004C53.3911 27.9773 53.3804 27.956 53.3591 27.94C53.3431 27.9187 53.3217 27.908 53.2951 27.908H50.8711C50.8444 27.908 50.8204 27.9187 50.7991 27.94C50.7831 27.956 50.7751 27.9773 50.7751 28.004V28.764ZM54.9872 31.5V27.964C54.9872 27.7613 55.0379 27.5773 55.1392 27.412C55.2406 27.2467 55.3739 27.1133 55.5393 27.012C55.7099 26.9107 55.8939 26.86 56.0913 26.86H58.6673V27.908H56.1313C56.1046 27.908 56.0806 27.9187 56.0592 27.94C56.0433 27.956 56.0353 27.9773 56.0353 28.004V31.5H54.9872ZM59.0523 31.5V26.86H62.6603C62.863 26.86 63.047 26.9107 63.2123 27.012C63.383 27.1133 63.5163 27.2467 63.6123 27.412C63.7136 27.5773 63.7643 27.7613 63.7643 27.964V31.5H62.7163V28.004C62.7163 27.9773 62.7056 27.956 62.6843 27.94C62.6683 27.9187 62.647 27.908 62.6203 27.908H60.1963C60.1696 27.908 60.1456 27.9187 60.1243 27.94C60.1083 27.956 60.1003 27.9773 60.1003 28.004V31.5H59.0523ZM65.4706 31.5C65.268 31.5 65.0813 31.4493 64.9106 31.348C64.7453 31.2467 64.612 31.1133 64.5106 30.948C64.4146 30.7827 64.3666 30.5987 64.3666 30.396V28.652H68.0306V28.004C68.0306 27.9773 68.02 27.956 67.9986 27.94C67.9826 27.9187 67.9613 27.908 67.9346 27.908H64.3666V26.86H67.9746C68.1773 26.86 68.3613 26.9107 68.5266 27.012C68.6973 27.1133 68.8306 27.2467 68.9266 27.412C69.028 27.5773 69.0786 27.7613 69.0786 27.964V31.5H65.4706ZM65.5106 30.452H68.0306V29.596H65.4146V30.356C65.4146 30.3827 65.4226 30.4067 65.4386 30.428C65.46 30.444 65.484 30.452 65.5106 30.452ZM70.7933 31.5C70.5906 31.5 70.4066 31.4493 70.2413 31.348C70.076 31.2467 69.9426 31.1133 69.8413 30.948C69.74 30.7827 69.6893 30.5987 69.6893 30.396V25.436H70.7373V26.86H72.5453V27.908H70.7373V30.356C70.7373 30.3827 70.7453 30.4067 70.7613 30.428C70.7826 30.444 70.8066 30.452 70.8333 30.452H72.5453V31.5H70.7933ZM72.9569 31.5V26.86H74.0049V31.5H72.9569ZM72.9569 26.396V25.34H74.0049V26.396H72.9569ZM75.5864 31.5C75.3837 31.5 75.1997 31.4493 75.0344 31.348C74.869 31.2467 74.7357 31.1133 74.6344 30.948C74.533 30.7827 74.4824 30.5987 74.4824 30.396V27.964C74.4824 27.7613 74.533 27.5773 74.6344 27.412C74.7357 27.2467 74.869 27.1133 75.0344 27.012C75.1997 26.9107 75.3837 26.86 75.5864 26.86H78.0904C78.293 26.86 78.477 26.9107 78.6424 27.012C78.813 27.1133 78.9464 27.2467 79.0424 27.412C79.1437 27.5773 79.1944 27.7613 79.1944 27.964V30.396C79.1944 30.5987 79.1437 30.7827 79.0424 30.948C78.9464 31.1133 78.8157 31.2467 78.6504 31.348C78.485 31.4493 78.2984 31.5 78.0904 31.5H75.5864ZM75.6264 30.452H78.0504C78.077 30.452 78.0984 30.444 78.1144 30.428C78.1357 30.4067 78.1464 30.3827 78.1464 30.356V28.004C78.1464 27.9773 78.1357 27.956 78.1144 27.94C78.0984 27.9187 78.077 27.908 78.0504 27.908H75.6264C75.5997 27.908 75.5757 27.9187 75.5544 27.94C75.5384 27.956 75.5304 27.9773 75.5304 28.004V30.356C75.5304 30.3827 75.5384 30.4067 75.5544 30.428C75.5757 30.444 75.5997 30.452 75.6264 30.452ZM79.6101 31.5V26.86H83.2181C83.4208 26.86 83.6048 26.9107 83.7701 27.012C83.9408 27.1133 84.0741 27.2467 84.1701 27.412C84.2715 27.5773 84.3221 27.7613 84.3221 27.964V31.5H83.2741V28.004C83.2741 27.9773 83.2635 27.956 83.2421 27.94C83.2261 27.9187 83.2048 27.908 83.1781 27.908H80.7541C80.7275 27.908 80.7035 27.9187 80.6821 27.94C80.6661 27.956 80.6581 27.9773 80.6581 28.004V31.5H79.6101ZM86.0284 31.5C85.8258 31.5 85.6391 31.4493 85.4684 31.348C85.3031 31.2467 85.1698 31.1133 85.0684 30.948C84.9724 30.7827 84.9244 30.5987 84.9244 30.396V28.652H88.5884V28.004C88.5884 27.9773 88.5778 27.956 88.5564 27.94C88.5404 27.9187 88.5191 27.908 88.4924 27.908H84.9244V26.86H88.5324C88.7351 26.86 88.9191 26.9107 89.0844 27.012C89.2551 27.1133 89.3884 27.2467 89.4844 27.412C89.5858 27.5773 89.6364 27.7613 89.6364 27.964V31.5H86.0284ZM86.0684 30.452H88.5884V29.596H85.9724V30.356C85.9724 30.3827 85.9804 30.4067 85.9964 30.428C86.0178 30.444 86.0418 30.452 86.0684 30.452ZM91.1712 31.5C90.9686 31.5 90.7846 31.4493 90.6192 31.348C90.4539 31.2467 90.3206 31.1133 90.2192 30.948C90.1179 30.7827 90.0672 30.5987 90.0672 30.396V25.332H91.1232V30.356C91.1232 30.3827 91.1312 30.4067 91.1472 30.428C91.1686 30.444 91.1926 30.452 91.2192 30.452H92.1072V31.5H91.1712ZM95.7379 31.5C95.5353 31.5 95.3513 31.4493 95.1859 31.348C95.0206 31.2467 94.8873 31.1133 94.7859 30.948C94.6846 30.7827 94.6339 30.5987 94.6339 30.396V27.964C94.6339 27.7613 94.6846 27.5773 94.7859 27.412C94.8873 27.2467 95.0206 27.1133 95.1859 27.012C95.3513 26.9107 95.5353 26.86 95.7379 26.86H99.3379V27.908H95.7779C95.7513 27.908 95.7273 27.9187 95.7059 27.94C95.6899 27.956 95.6819 27.9773 95.6819 28.004V30.356C95.6819 30.3827 95.6899 30.4067 95.7059 30.428C95.7273 30.444 95.7513 30.452 95.7779 30.452H99.3459V31.5H95.7379ZM99.9644 31.5V26.86H101.012V31.5H99.9644ZM99.9644 26.396V25.34H101.012V26.396H99.9644ZM101.662 31.5V27.964C101.662 27.7613 101.713 27.5773 101.814 27.412C101.915 27.2467 102.049 27.1133 102.214 27.012C102.385 26.9107 102.569 26.86 102.766 26.86H105.342V27.908H102.806C102.779 27.908 102.755 27.9187 102.734 27.94C102.718 27.956 102.71 27.9773 102.71 28.004V31.5H101.662ZM106.698 31.5C106.495 31.5 106.311 31.4493 106.146 31.348C105.98 31.2467 105.847 31.1133 105.746 30.948C105.644 30.7827 105.594 30.5987 105.594 30.396V27.964C105.594 27.7613 105.644 27.5773 105.746 27.412C105.847 27.2467 105.98 27.1133 106.146 27.012C106.311 26.9107 106.495 26.86 106.698 26.86H110.298V27.908H106.738C106.711 27.908 106.687 27.9187 106.666 27.94C106.65 27.956 106.642 27.9773 106.642 28.004V30.356C106.642 30.3827 106.65 30.4067 106.666 30.428C106.687 30.444 106.711 30.452 106.738 30.452H110.306V31.5H106.698ZM111.841 31.5C111.638 31.5 111.451 31.4493 111.281 31.348C111.115 31.2467 110.982 31.1133 110.881 30.948C110.785 30.7827 110.737 30.5987 110.737 30.396V26.86H111.785V30.356C111.785 30.3827 111.793 30.4067 111.809 30.428C111.83 30.444 111.854 30.452 111.881 30.452H114.305C114.331 30.452 114.353 30.444 114.369 30.428C114.39 30.4067 114.401 30.3827 114.401 30.356V26.86H115.449V30.396C115.449 30.5987 115.398 30.7827 115.297 30.948C115.201 31.1133 115.07 31.2467 114.905 31.348C114.739 31.4493 114.553 31.5 114.345 31.5H111.841ZM116.051 31.5V26.86H117.099V31.5H116.051ZM116.051 26.396V25.34H117.099V26.396H116.051ZM118.806 31.5C118.603 31.5 118.419 31.4493 118.254 31.348C118.089 31.2467 117.955 31.1133 117.854 30.948C117.753 30.7827 117.702 30.5987 117.702 30.396V25.436H118.75V26.86H120.558V27.908H118.75V30.356C118.75 30.3827 118.758 30.4067 118.774 30.428C118.795 30.444 118.819 30.452 118.846 30.452H120.558V31.5H118.806Z" fill="white"/>
<defs>
<clipPath id="clip0_537_1962">
<rect width="35" height="35" fill="white"/>
</clipPath>
</defs>
</svg>
